<svg id="Capa_1" enable-background="new 0 0 512.04 512.04" height="512" viewBox="0 0 512.04 512.04" width="512" xmlns="http://www.w3.org/2000/svg"><g><path d="m232.631 248.21c-8.588 8.588-8.588 22.563 0 31.151 8.587 8.588 22.562 8.589 31.152 0 8.588-8.588 8.588-22.563 0-31.151-8.59-8.589-22.564-8.589-31.152 0zm20.545 10.606c2.74 2.74 2.74 7.199 0 9.938-2.74 2.74-7.198 2.74-9.938 0s-2.74-7.198 0-9.938 7.197-2.74 9.938 0z"/><path d="m134.046 512.04c7.656 0 13.977-2.263 18.585-6.872 1.517-1.516-2.655 3.765 64.231-83.564v.839c0 6.589 7.395 10.504 12.839 6.788l17.338-11.814c.709-.483 1.625-.483 2.334 0l17.333 11.812c5.448 3.718 12.844-.193 12.844-6.785v-19.754l8.481 17.836c2.82 5.938 11.169 6.328 14.512.619l10.583-18.115c.434-.741 1.256-1.136 2.109-1.002l20.734 3.225c6.515 1.002 11.506-5.69 8.677-11.645l-36.165-76.053c2.59-3.712 6.059-6.691 10.181-8.719l8.15-4.008c5.461-2.685 7.892-9.061 5.765-14.646 20.435-19.062 41.977-37.288 64.121-54.248 114.606-87.778 106.953-81.789 108.478-83.313 9.655-9.654 9.022-27.036-1.726-49.117.74-5.306-.236-12.473-4.596-22.108-1.708-3.773-6.15-5.448-9.925-3.741-3.774 1.708-5.449 6.151-3.741 9.925 4.646 10.265 3.534 14.732 2.773 15.492-.037.037-.078.072-.127.108-9.082 6.625-30.382 1.554-55.538-12.879l3.305-3.304c3.889-3.891 3.93-10.276.089-14.237-10.821-11.145-19.349-22.97-24.013-33.297-4.62-10.231-3.509-14.685-2.756-15.438.121-.121.269-.228.442-.321.349-.089.691-.203 1.023-.341 6.029-1.147 25.906 6.039 49.054 29.187 2.449 2.45 4.825 4.977 7.063 7.512 2.74 3.105 7.48 3.4 10.586.659s3.4-7.481.658-10.586c-2.441-2.766-5.032-5.521-7.7-8.19-20.033-20.038-45.066-35.47-61.477-33.365-22.12-10.785-39.532-11.434-49.198-1.766-.765.765-1.514 1.628-2.219 2.599-87.258 113.927-86.134 112.673-96.988 126.006-4.02 4.938-.414 12.235 5.812 12.235 2.179 0 4.339-.944 5.821-2.765 11.132-13.674 10.975-13.695 82.453-107.018 1.122 4.383 2.677 8.663 4.437 12.789 12.071 28.295 38.063 57.495 62.015 77.043-93.143 71.339-108.134 82.093-136.029 106.384-8.553-10.485-21.07-16.735-34.595-17.269-6.604-8.286-12.778-16.991-18.422-25.972 5.524-5.899 11.001-11.91 16.331-17.927 2.747-3.1 2.46-7.84-.64-10.587-3.101-2.747-7.841-2.46-10.587.64-4.884 5.513-9.894 11.022-14.949 16.441-5.608-2.137-11.972.328-14.646 5.765l-4.008 8.15c-3.026 6.153-8.225 10.879-14.637 13.309l-4.899 1.856c-6.258 2.369-9.214 9.47-6.6 15.54-19.699 18.236-40.437 35.716-61.717 52.015-113.866 87.209-106.987 81.819-108.48 83.313-9.148 9.147-9.031 25.537.33 46.148 22.164 48.807 88.153 106.531 126.891 106.531zm123.775-107.019c-5.84-3.98-13.389-3.979-19.228 0l-6.731 4.586v-42.815c0-4.142-3.358-7.5-7.5-7.5s-7.5 3.358-7.5 7.5v30.142c-79.247 103.468-74.402 97.192-74.837 97.627-5.547 5.546-24.25 2.048-49.048-14.545l123.885-161.751v13.527c0 4.142 3.358 7.5 7.5 7.5s7.5-3.358 7.5-7.5v-23.914c10.107 3.729 21.738 4.041 32.689 0v101.729zm59.722-17.815c-6.987-1.089-13.801 2.156-17.366 8.257l-4.108 7.032-16.517-34.734v-68.916c.837-.749 1.61-1.492 2.352-2.255l43.686 91.868zm-16.084-84.423-9.889-20.796c.416-.995.796-2.002 1.141-3.018 7.124 5.346 14.501 10.386 22.055 15.067-4.464 2.196-8.372 3.998-13.307 8.747zm191.901-184.965c5.129 13.35 4.145 21.263 1.212 24.195-3.647 3.649-13.701 3.651-28.897-3.175zm-71.711-38.081-2.434 2.433c-11.352-7.584-22.911-16.627-34.167-26.712l11.03-14.527c4.616 12.528 14.317 26.565 25.571 38.806zm-27.475-61.104-20.141 26.527c-.784-.765-1.566-1.534-2.345-2.308-4.808-12.012-5.484-21.658-1.71-25.432 2.932-2.931 10.845-3.917 24.196 1.213zm6.625 68.946c18.228 13.347 42.815 28.115 65.109 32.249l-14.789 11.229c-18.306-11.217-36.212-27.283-50.32-43.478zm32.28 49.538c11.947 8.428 26.967 17.056 41.013 20.648l-86.512 66.26c-22.962 17.587-45.289 36.511-66.434 56.311-8.979-5.643-17.683-11.817-25.971-18.421-.195-4.941-1.163-9.857-2.903-14.548 28.835-25.289 42.418-34.894 140.807-110.25zm-162.226 149.315c-12.486 12.487-32.806 12.487-45.293 0-12.487-12.488-12.487-32.806 0-45.294 12.487-12.487 32.806-12.488 45.293 0 12.489 12.488 12.489 32.807 0 45.294zm-77.019-65.769c9.981-3.781 18.072-11.138 22.783-20.716l1.339-2.722c4.682 7.555 9.722 14.933 15.067 22.056-11.879 4.031-21.205 12.516-26.55 22.82-4.978-6.872-9.529-13.789-13.836-20.985zm-176.403 149.305c.436-.435-6.418 4.851 106.993-82.012 20.829-15.953 41.147-33.019 60.505-50.812 5.1 7.93 10.594 15.649 16.409 23.053-.988 13.028 3.413 26.392 13.205 36.426l-133.701 174.568c-7.209-5.658-14.313-11.978-21.188-18.853-38.028-38.029-50.408-74.186-42.223-82.37z"/></g></svg>